<svg xmlns="http://www.w3.org/2000/svg" width="542.521" height="556.64" viewBox="0 0 542.521 556.64">
  <g id="illustration" transform="translate(-362.262 -52.385)">
    <path id="Trazado_22061" data-name="Trazado 22061" d="M46.468,249.886a46.468,46.468,0,1,1,46.468-46.468,46.468,46.468,0,0,1-46.468,46.468Zm0-74.3a27.759,27.759,0,1,1,0,.133Z" transform="translate(811.846 126.588)" fill="#e8e8e8"/>
    <path id="Trazado_22364" data-name="Trazado 22364" d="M357.74,122.979a20.269,20.269,0,1,1,20.268-20.268A20.291,20.291,0,0,1,357.74,122.979Zm0-36.113a15.845,15.845,0,1,0,15.843,15.846A15.861,15.861,0,0,0,357.74,86.865Z" transform="translate(24.796 -3.851)" fill="#c4cbd6"/>
    <path id="Trazado_22365" data-name="Trazado 22365" d="M556.838,189.034a14.373,14.373,0,1,1,14.372-14.372A14.39,14.39,0,0,1,556.838,189.034Zm0-24.321a9.948,9.948,0,1,0,9.947,9.949A9.96,9.96,0,0,0,556.838,164.713Z" transform="translate(286.618 80.214)" fill="#5793ce"/>
    <path id="Trazado_22367" data-name="Trazado 22367" d="M464.109,165.854l-9.755-19.844,19.84-9.755,9.755,19.842Zm-3.836-17.827,5.852,11.906,11.9-5.852-5.85-11.906Z" transform="translate(196 55.496)" fill="#5793ce"/>
    <g id="Grupo_17264" data-name="Grupo 17264" transform="translate(362.262 52.926)">
      <g id="Grupo_17250" data-name="Grupo 17250" transform="translate(0 11.948)">
        <path id="Trazado_22368" data-name="Trazado 22368" d="M502.582,435.462,264.043,297.742c-6.747-3.9-5.9-10.7,1.89-15.2L428.36,188.8c7.793-4.5,19.58-4.989,26.327-1.092l238.539,137.72c6.747,3.9,5.9,10.7-1.89,15.2L528.909,434.371C521.116,438.869,509.33,439.358,502.582,435.462Z" transform="translate(-255.187 69.067)" fill="#e2e2e2"/>
        <path id="Trazado_22369" data-name="Trazado 22369" d="M670.693,178.293,427.473,37.87a9.82,9.82,0,0,0-8.242-1.01l.015-.026L418.8,37c-.036.015-.072.027-.108.041L409.908,40.4l7.889,3.862c-.036.147-.082.282-.114.431L378.066,225.029c-1.982,9.025,1.988,19.561,8.868,23.533L624.305,385.609l-.848,10.059,9.608-3.724c3.227-1.509,5.811-4.924,6.879-9.786l39.616-180.332C681.543,192.8,677.573,182.265,670.693,178.293Z" transform="translate(-171.477 -36.366)" fill="#173d7a"/>
        <path id="Trazado_22370" data-name="Trazado 22370" d="M664.877,178.293,421.657,37.87a9.82,9.82,0,0,0-8.242-1.01l.015-.026-.441.166c-.036.015-.072.027-.108.041L404.092,40.4l7.889,3.862c-.036.147-.082.282-.115.431L385.758,163.546l119,92.717,167.8-68.278A18.871,18.871,0,0,0,664.877,178.293Z" transform="translate(-165.661 -36.366)" fill="#396caa"/>
        <path id="Trazado_22371" data-name="Trazado 22371" d="M551.3,146.595l18.513-7.884c.34-7.169-2.628-14.578-7.5-18.539L533.011,132.5Z" transform="translate(-61.258 23.052)" fill="#274f89"/>
        <path id="Trazado_22372" data-name="Trazado 22372" d="M621.292,393.3,378.072,252.881c-6.88-3.972-10.851-14.508-8.868-23.533L408.82,49.016c1.982-9.025,9.167-13.12,16.047-9.148l243.22,140.423c6.88,3.972,10.85,14.509,8.868,23.533L637.339,384.156C635.357,393.181,628.172,397.278,621.292,393.3Z" transform="translate(-177.76 -34.96)" fill="#d4ecff"/>
        <path id="Trazado_22373" data-name="Trazado 22373" d="M611.871,374.4l-228.743-132c-6.3-3.635-9.931-13.277-8.116-21.535L411.265,55.849c1.813-8.258,8.388-12.006,14.684-8.371l228.745,132c6.3,3.635,9.929,13.277,8.114,21.535L626.556,366.032C624.741,374.29,618.167,378.038,611.871,374.4Z" transform="translate(-173.611 -29.473)" fill="#fff"/>
        <path id="Trazado_22374" data-name="Trazado 22374" d="M611.871,374.4l-228.743-132c-6.3-3.635-9.931-13.277-8.116-21.535L411.265,55.849c1.813-8.258,8.388-12.006,14.684-8.371l228.745,132c6.3,3.635,9.929,13.277,8.114,21.535L626.556,366.032C624.741,374.29,618.167,378.038,611.871,374.4Z" transform="translate(-173.611 -29.473)" fill="#fff"/>
        <path id="Trazado_22375" data-name="Trazado 22375" d="M703.857,303.965l-33.247-4.39L456,175.666c-6.88-3.972-18.9-3.474-26.843,1.114L277.08,264.548l-20.1-2.656V273.3l.019,0c-.132,2.637,1.371,5.173,4.616,7.046l243.22,140.423c6.88,3.973,18.9,3.474,26.843-1.113l165.614-95.586c4.471-2.581,6.7-5.9,6.568-9.027h0Z" transform="translate(-256.967 60.496)" fill="#173d7a"/>
        <path id="Trazado_22376" data-name="Trazado 22376" d="M542.6,207.465l-15.248-8.8H359.722L277.08,246.343l-20.1-2.656v11.408l.019,0c-.132,2.637,1.371,5.173,4.616,7.046l243.22,140.423c3.637,2.1,8.707,2.938,13.853,2.6Z" transform="translate(-256.967 78.702)" fill="#396caa"/>
        <path id="Trazado_22377" data-name="Trazado 22377" d="M265.9,226.187l-8.921-1.179v11.408l.019,0c-.132,2.637,1.371,5.173,4.616,7.046l4.286,2.475Z" transform="translate(-256.967 97.381)" fill="#5793ce"/>
        <path id="Trazado_22378" data-name="Trazado 22378" d="M403.439,329.783c6.522,2.473,15.846,1.935,22.808-1.417V302.924H403.439Z" transform="translate(-153.125 152.623)" fill="#274f89"/>
        <path id="Trazado_22379" data-name="Trazado 22379" d="M504.836,417.222,261.616,276.8c-6.88-3.973-6.017-10.912,1.928-15.5l165.614-95.586c7.945-4.585,19.963-5.084,26.843-1.113l243.22,140.424c6.88,3.973,6.017,10.912-1.928,15.5L531.679,416.109C523.734,420.7,511.716,421.2,504.836,417.222Z" transform="translate(-256.971 52.652)" fill="#d4ecff"/>
        <g id="Grupo_17249" data-name="Grupo 17249" transform="translate(96.488 223.221)">
          <path id="Trazado_22380" data-name="Trazado 22380" d="M325.031,208.714l-11-6.354c-.884-.509-.772-1.4.248-1.991l12.99-7.5a3.832,3.832,0,0,1,3.447-.142l11,6.352c.884.511.773,1.4-.248,1.991l-12.988,7.5A3.836,3.836,0,0,1,325.031,208.714Z" transform="translate(-313.43 -148.971)" fill="#173d7a"/>
          <path id="Trazado_22381" data-name="Trazado 22381" d="M334.976,214.455,323.97,208.1c-.884-.509-.772-1.4.248-1.989l12.99-7.5a3.832,3.832,0,0,1,3.447-.142l11,6.354c.884.509.772,1.4-.248,1.989l-12.988,7.5A3.832,3.832,0,0,1,334.976,214.455Z" transform="translate(-306.38 -144.901)" fill="#173d7a"/>
          <path id="Trazado_22382" data-name="Trazado 22382" d="M344.92,220.2l-11-6.354c-.885-.509-.774-1.4.246-1.989l12.99-7.5a3.832,3.832,0,0,1,3.447-.144l11,6.354c.884.509.773,1.4-.248,1.989l-12.988,7.5A3.832,3.832,0,0,1,344.92,220.2Z" transform="translate(-299.329 -140.83)" fill="#173d7a"/>
          <path id="Trazado_22383" data-name="Trazado 22383" d="M358.673,214.956l-11-6.354c-.884-.509-.773-1.4.248-1.989l10.9-6.3a3.832,3.832,0,0,1,3.447-.144l11,6.354c.884.511.772,1.4-.248,1.991l-10.9,6.294A3.832,3.832,0,0,1,358.673,214.956Z" transform="translate(-289.578 -143.692)" fill="#173d7a"/>
          <path id="Trazado_22384" data-name="Trazado 22384" d="M368.617,220.7l-11-6.354c-.884-.509-.772-1.4.248-1.989l10.9-6.3a3.832,3.832,0,0,1,3.447-.142l11,6.352c.884.511.774,1.4-.246,1.991l-10.905,6.294A3.827,3.827,0,0,1,368.617,220.7Z" transform="translate(-282.528 -139.622)" fill="#173d7a"/>
          <path id="Trazado_22385" data-name="Trazado 22385" d="M378.561,226.437l-11-6.352c-.884-.511-.772-1.4.248-1.991l10.9-6.3a3.832,3.832,0,0,1,3.447-.142l11.006,6.354c.884.509.773,1.4-.248,1.989l-10.9,6.3A3.83,3.83,0,0,1,378.561,226.437Z" transform="translate(-275.477 -135.551)" fill="#173d7a"/>
          <path id="Trazado_22386" data-name="Trazado 22386" d="M388.506,232.18,377.5,225.825c-.884-.509-.772-1.4.248-1.991l10.9-6.294a3.836,3.836,0,0,1,3.449-.144l11,6.354c.884.509.772,1.4-.248,1.989l-10.9,6.3A3.832,3.832,0,0,1,388.506,232.18Z" transform="translate(-268.427 -131.48)" fill="#173d7a"/>
          <path id="Trazado_22387" data-name="Trazado 22387" d="M398.45,237.921l-11-6.354c-.884-.509-.774-1.4.246-1.989l10.905-6.3a3.832,3.832,0,0,1,3.447-.144l11,6.354c.884.511.773,1.4-.248,1.991l-10.9,6.294A3.832,3.832,0,0,1,398.45,237.921Z" transform="translate(-261.376 -127.41)" fill="#173d7a"/>
          <path id="Trazado_22388" data-name="Trazado 22388" d="M408.394,243.661l-11-6.354c-.883-.509-.772-1.4.248-1.989l10.9-6.3a3.832,3.832,0,0,1,3.447-.142l11,6.352c.884.511.773,1.4-.248,1.991l-10.9,6.3A3.832,3.832,0,0,1,408.394,243.661Z" transform="translate(-254.326 -123.339)" fill="#173d7a"/>
          <path id="Trazado_22389" data-name="Trazado 22389" d="M418.338,249.4l-11-6.354c-.884-.511-.772-1.4.248-1.991l10.9-6.294a3.832,3.832,0,0,1,3.447-.144l11,6.354c.884.509.774,1.4-.246,1.989l-10.905,6.3A3.832,3.832,0,0,1,418.338,249.4Z" transform="translate(-247.275 -119.269)" fill="#173d7a"/>
          <path id="Trazado_22390" data-name="Trazado 22390" d="M428.282,255.145l-11-6.354c-.884-.509-.772-1.4.248-1.991l10.9-6.294a3.832,3.832,0,0,1,3.447-.144l11.006,6.354c.883.509.772,1.4-.248,1.991L431.729,255A3.832,3.832,0,0,1,428.282,255.145Z" transform="translate(-240.225 -115.198)" fill="#173d7a"/>
          <path id="Trazado_22391" data-name="Trazado 22391" d="M438.227,260.885l-11.006-6.354c-.884-.509-.772-1.4.248-1.989l10.9-6.3a3.826,3.826,0,0,1,3.447-.142l11.006,6.352c.884.511.772,1.4-.248,1.991l-10.9,6.294A3.827,3.827,0,0,1,438.227,260.885Z" transform="translate(-233.175 -111.128)" fill="#173d7a"/>
          <path id="Trazado_22392" data-name="Trazado 22392" d="M448.171,266.626l-11.006-6.352c-.884-.511-.772-1.4.248-1.991l10.905-6.3a3.832,3.832,0,0,1,3.447-.142l11,6.352c.884.511.772,1.4-.248,1.991l-10.9,6.3A3.832,3.832,0,0,1,448.171,266.626Z" transform="translate(-226.124 -107.057)" fill="#173d7a"/>
          <path id="Trazado_22393" data-name="Trazado 22393" d="M373.325,212.238l-11-6.354c-.884-.511-.773-1.4.248-1.991l10.9-6.294a3.832,3.832,0,0,1,3.447-.144l11,6.354c.884.509.774,1.4-.246,1.989l-10.905,6.3A3.833,3.833,0,0,1,373.325,212.238Z" transform="translate(-279.19 -145.619)" fill="#396caa"/>
          <path id="Trazado_22394" data-name="Trazado 22394" d="M363.233,206.411l-11.006-6.354c-.884-.509-.772-1.4.248-1.989l10.9-6.3a3.836,3.836,0,0,1,3.449-.144l11,6.354c.884.509.772,1.4-.248,1.991l-10.9,6.294A3.832,3.832,0,0,1,363.233,206.411Z" transform="translate(-286.345 -149.751)" fill="#396caa"/>
          <path id="Trazado_22395" data-name="Trazado 22395" d="M358.392,203.614l-23.7-13.684c-.884-.509-.772-1.4.248-1.989l10.9-6.3a3.832,3.832,0,0,1,3.447-.144l23.7,13.684c.884.511.772,1.4-.248,1.991l-10.9,6.3A3.832,3.832,0,0,1,358.392,203.614Z" transform="translate(-298.78 -156.93)" fill="#173d7a"/>
          <path id="Trazado_22396" data-name="Trazado 22396" d="M363.6,195.446l-19.235-11.105c-.883-.509-.772-1.4.248-1.989l10.9-6.3a3.832,3.832,0,0,1,3.447-.142L378.2,187.019c.884.509.772,1.4-.248,1.989l-10.9,6.3A3.832,3.832,0,0,1,363.6,195.446Z" transform="translate(-291.917 -160.892)" fill="#173d7a"/>
          <path id="Trazado_22397" data-name="Trazado 22397" d="M383.269,217.979l-11-6.354c-.884-.509-.772-1.4.248-1.989l10.9-6.3a3.832,3.832,0,0,1,3.447-.144l11.006,6.354c.883.511.772,1.4-.248,1.991l-10.9,6.294A3.831,3.831,0,0,1,383.269,217.979Z" transform="translate(-272.139 -141.549)" fill="#396caa"/>
          <path id="Trazado_22398" data-name="Trazado 22398" d="M393.214,223.719l-11.006-6.352c-.884-.511-.772-1.4.248-1.991l10.9-6.3a3.835,3.835,0,0,1,3.449-.142l11,6.352c.884.511.772,1.4-.248,1.991l-10.9,6.3A3.832,3.832,0,0,1,393.214,223.719Z" transform="translate(-265.089 -137.478)" fill="#173d7a"/>
          <path id="Trazado_22399" data-name="Trazado 22399" d="M403.158,229.46l-11-6.352c-.885-.511-.774-1.4.246-1.991l10.905-6.294a3.827,3.827,0,0,1,3.447-.144l11,6.354c.884.509.772,1.4-.248,1.989l-10.9,6.3A3.826,3.826,0,0,1,403.158,229.46Z" transform="translate(-258.038 -133.408)" fill="#173d7a"/>
          <path id="Trazado_22400" data-name="Trazado 22400" d="M413.1,235.2l-11-6.354c-.884-.509-.772-1.4.248-1.991l10.9-6.294a3.833,3.833,0,0,1,3.447-.144l11,6.354c.884.509.772,1.4-.248,1.991l-10.9,6.294A3.832,3.832,0,0,1,413.1,235.2Z" transform="translate(-250.988 -129.337)" fill="#173d7a"/>
          <path id="Trazado_22401" data-name="Trazado 22401" d="M423.046,240.943l-11-6.354c-.884-.509-.772-1.4.248-1.989l10.9-6.3a3.826,3.826,0,0,1,3.447-.142l11,6.352c.884.511.774,1.4-.246,1.991l-10.905,6.3A3.832,3.832,0,0,1,423.046,240.943Z" transform="translate(-243.937 -125.267)" fill="#173d7a"/>
          <path id="Trazado_22402" data-name="Trazado 22402" d="M432.99,246.684l-11-6.352c-.883-.511-.772-1.4.248-1.991l10.9-6.3a3.832,3.832,0,0,1,3.447-.142l11.006,6.354c.884.509.772,1.4-.248,1.989l-10.905,6.3A3.832,3.832,0,0,1,432.99,246.684Z" transform="translate(-236.887 -121.196)" fill="#173d7a"/>
          <path id="Trazado_22403" data-name="Trazado 22403" d="M442.935,252.427l-11.006-6.354c-.884-.511-.772-1.4.248-1.991l10.9-6.294a3.832,3.832,0,0,1,3.447-.144L457.534,244c.884.509.772,1.4-.248,1.989l-10.9,6.3A3.832,3.832,0,0,1,442.935,252.427Z" transform="translate(-229.837 -117.125)" fill="#173d7a"/>
          <path id="Trazado_22404" data-name="Trazado 22404" d="M452.879,258.168l-11.006-6.354c-.884-.509-.772-1.4.248-1.989l10.9-6.3a3.836,3.836,0,0,1,3.449-.144l11,6.354c.884.511.772,1.4-.248,1.991l-10.9,6.294A3.832,3.832,0,0,1,452.879,258.168Z" transform="translate(-222.786 -113.055)" fill="#173d7a"/>
          <path id="Trazado_22405" data-name="Trazado 22405" d="M462.823,263.908l-11-6.354c-.884-.509-.774-1.4.246-1.989l10.905-6.3a3.832,3.832,0,0,1,3.447-.142l11,6.352c.884.511.773,1.4-.248,1.991l-10.9,6.3A3.832,3.832,0,0,1,462.823,263.908Z" transform="translate(-215.736 -108.984)" fill="#173d7a"/>
          <path id="Trazado_22406" data-name="Trazado 22406" d="M485.9,277.231l-24.011-13.863c-.884-.509-.772-1.4.248-1.989l10.905-6.3a3.832,3.832,0,0,1,3.447-.144L500.5,268.8c.883.511.772,1.4-.248,1.991l-10.9,6.294A3.836,3.836,0,0,1,485.9,277.231Z" transform="translate(-208.598 -104.863)" fill="#173d7a"/>
          <path id="Trazado_22407" data-name="Trazado 22407" d="M503.7,265.156l-20.265-11.7c-.884-.511-.772-1.4.248-1.991l10.9-6.3a3.832,3.832,0,0,1,3.447-.142l20.267,11.7c.884.511.772,1.4-.248,1.991l-10.9,6.3A3.835,3.835,0,0,1,503.7,265.156Z" transform="translate(-193.317 -111.891)" fill="#173d7a"/>
          <path id="Trazado_22408" data-name="Trazado 22408" d="M400.684,216.856l-11-6.354c-.884-.511-.774-1.4.246-1.991l10.905-6.294a3.832,3.832,0,0,1,3.447-.144l11,6.354c.884.509.772,1.4-.248,1.989l-10.9,6.3A3.832,3.832,0,0,1,400.684,216.856Z" transform="translate(-259.792 -142.345)" fill="#173d7a"/>
          <path id="Trazado_22409" data-name="Trazado 22409" d="M390.492,210.972l-11-6.354c-.884-.511-.772-1.4.248-1.991l10.9-6.294a3.827,3.827,0,0,1,3.447-.144l11,6.354c.884.509.774,1.4-.246,1.989l-10.905,6.3A3.832,3.832,0,0,1,390.492,210.972Z" transform="translate(-267.018 -146.517)" fill="#173d7a"/>
          <path id="Trazado_22410" data-name="Trazado 22410" d="M380.3,205.086,369.3,198.734c-.883-.511-.772-1.4.248-1.991l10.905-6.294a3.827,3.827,0,0,1,3.447-.144l11,6.354c.884.509.772,1.4-.248,1.989l-10.9,6.3A3.827,3.827,0,0,1,380.3,205.086Z" transform="translate(-274.244 -150.689)" fill="#396caa"/>
          <path id="Trazado_22411" data-name="Trazado 22411" d="M370.109,199.2l-11-6.352c-.884-.511-.772-1.4.248-1.991l10.9-6.3a3.832,3.832,0,0,1,3.447-.142l11,6.354c.884.509.774,1.4-.246,1.989l-10.905,6.3A3.832,3.832,0,0,1,370.109,199.2Z" transform="translate(-281.47 -154.861)" fill="#173d7a"/>
          <path id="Trazado_22412" data-name="Trazado 22412" d="M410.628,222.6l-11-6.354c-.884-.509-.772-1.4.248-1.989l10.9-6.3a3.832,3.832,0,0,1,3.447-.144l11,6.354c.884.511.772,1.4-.248,1.991l-10.9,6.294A3.832,3.832,0,0,1,410.628,222.6Z" transform="translate(-252.742 -138.275)" fill="#173d7a"/>
          <path id="Trazado_22413" data-name="Trazado 22413" d="M420.572,228.337l-11-6.354c-.884-.509-.772-1.4.248-1.989l10.9-6.3a3.832,3.832,0,0,1,3.447-.142l11,6.352c.884.511.774,1.4-.246,1.991l-10.905,6.3A3.832,3.832,0,0,1,420.572,228.337Z" transform="translate(-245.691 -134.204)" fill="#173d7a"/>
          <path id="Trazado_22414" data-name="Trazado 22414" d="M430.516,234.08l-11-6.354c-.884-.511-.772-1.4.248-1.991l10.9-6.294a3.827,3.827,0,0,1,3.447-.144l11.006,6.354c.884.509.773,1.4-.248,1.989l-10.905,6.3A3.832,3.832,0,0,1,430.516,234.08Z" transform="translate(-238.641 -130.134)" fill="#173d7a"/>
          <path id="Trazado_22415" data-name="Trazado 22415" d="M440.461,239.821l-11.006-6.354c-.884-.509-.772-1.4.248-1.989l10.9-6.3a3.832,3.832,0,0,1,3.447-.144l11.006,6.354c.884.509.772,1.4-.248,1.991l-10.9,6.294A3.832,3.832,0,0,1,440.461,239.821Z" transform="translate(-231.591 -126.063)" fill="#173d7a"/>
          <path id="Trazado_22416" data-name="Trazado 22416" d="M450.405,245.561,439.4,239.207c-.884-.509-.772-1.4.248-1.989l10.905-6.3A3.826,3.826,0,0,1,454,230.78l11,6.352c.884.511.772,1.4-.248,1.991l-10.9,6.294A3.827,3.827,0,0,1,450.405,245.561Z" transform="translate(-224.54 -121.993)" fill="#173d7a"/>
          <path id="Trazado_22417" data-name="Trazado 22417" d="M460.349,251.3l-11-6.352c-.884-.511-.774-1.4.246-1.991l10.905-6.3a3.832,3.832,0,0,1,3.447-.142l11,6.352c.884.511.772,1.4-.248,1.991l-10.9,6.3A3.832,3.832,0,0,1,460.349,251.3Z" transform="translate(-217.49 -117.922)" fill="#173d7a"/>
          <path id="Trazado_22418" data-name="Trazado 22418" d="M470.293,257.045l-11-6.354c-.884-.511-.772-1.4.248-1.991l10.9-6.294a3.827,3.827,0,0,1,3.447-.144l11,6.354c.884.509.772,1.4-.248,1.989l-10.9,6.3A3.832,3.832,0,0,1,470.293,257.045Z" transform="translate(-210.439 -113.851)" fill="#173d7a"/>
          <path id="Trazado_22419" data-name="Trazado 22419" d="M480.237,262.786l-11-6.354c-.884-.509-.772-1.4.248-1.989l10.9-6.3a3.832,3.832,0,0,1,3.447-.144l11,6.354c.884.511.774,1.4-.246,1.991l-10.905,6.294A3.832,3.832,0,0,1,480.237,262.786Z" transform="translate(-203.389 -109.781)" fill="#173d7a"/>
          <path id="Trazado_22420" data-name="Trazado 22420" d="M490.181,268.526l-11-6.354c-.884-.509-.772-1.4.248-1.989l10.9-6.3a3.832,3.832,0,0,1,3.447-.142l11.006,6.352c.883.511.772,1.4-.248,1.991l-10.9,6.294A3.831,3.831,0,0,1,490.181,268.526Z" transform="translate(-196.338 -105.71)" fill="#173d7a"/>
          <path id="Trazado_22421" data-name="Trazado 22421" d="M395.448,202.655,384.442,196.3c-.884-.509-.772-1.4.248-1.989l10.9-6.3a3.832,3.832,0,0,1,3.447-.144l11.006,6.354c.883.511.772,1.4-.248,1.991l-10.9,6.294A3.832,3.832,0,0,1,395.448,202.655Z" transform="translate(-263.505 -152.414)" fill="#173d7a"/>
          <path id="Trazado_22422" data-name="Trazado 22422" d="M385.553,196.941l-11-6.352c-.884-.511-.774-1.4.246-1.991l10.905-6.3a3.832,3.832,0,0,1,3.447-.142l11,6.352c.884.511.772,1.4-.248,1.991L389,196.8A3.832,3.832,0,0,1,385.553,196.941Z" transform="translate(-270.52 -156.464)" fill="#173d7a"/>
          <path id="Trazado_22423" data-name="Trazado 22423" d="M375.658,191.228l-11-6.352c-.884-.511-.772-1.4.248-1.991l10.9-6.294a3.827,3.827,0,0,1,3.447-.144l11,6.354c.884.509.774,1.4-.246,1.989l-10.905,6.3A3.826,3.826,0,0,1,375.658,191.228Z" transform="translate(-277.535 -160.514)" fill="#173d7a"/>
          <path id="Trazado_22424" data-name="Trazado 22424" d="M365.763,185.517l-11-6.354c-.884-.509-.772-1.4.248-1.989l10.9-6.3a3.832,3.832,0,0,1,3.447-.144l11.006,6.354c.884.511.772,1.4-.248,1.991l-10.9,6.294A3.836,3.836,0,0,1,365.763,185.517Z" transform="translate(-284.551 -164.565)" fill="#173d7a"/>
          <path id="Trazado_22425" data-name="Trazado 22425" d="M375.938,177.893l-11-6.352c-.883-.511-.772-1.4.248-1.991l3.6-2.082a3.832,3.832,0,0,1,3.447-.142l11,6.352c.884.511.772,1.4-.248,1.991l-3.6,2.082A3.826,3.826,0,0,1,375.938,177.893Z" transform="translate(-277.337 -166.981)" fill="#173d7a"/>
          <path id="Trazado_22426" data-name="Trazado 22426" d="M388.851,185.35l-11-6.354c-.884-.511-.774-1.4.246-1.991l3.606-2.082a3.832,3.832,0,0,1,3.447-.142l11,6.354c.884.509.773,1.4-.248,1.989l-3.6,2.082A3.832,3.832,0,0,1,388.851,185.35Z" transform="translate(-268.182 -161.696)" fill="#173d7a"/>
          <path id="Trazado_22427" data-name="Trazado 22427" d="M398.7,191.037l-11-6.352c-.884-.511-.772-1.4.248-1.991l3.6-2.082A3.832,3.832,0,0,1,395,180.47l11,6.352c.883.511.774,1.4-.246,1.991l-3.606,2.082A3.832,3.832,0,0,1,398.7,191.037Z" transform="translate(-261.196 -157.662)" fill="#173d7a"/>
          <path id="Trazado_22428" data-name="Trazado 22428" d="M408.558,196.726l-11-6.352c-.885-.511-.774-1.4.246-1.991l3.6-2.082a3.835,3.835,0,0,1,3.449-.142l11,6.352c.884.511.772,1.4-.248,1.991l-3.6,2.082A3.832,3.832,0,0,1,408.558,196.726Z" transform="translate(-254.21 -153.629)" fill="#173d7a"/>
          <path id="Trazado_22429" data-name="Trazado 22429" d="M418.411,202.415l-11-6.352c-.884-.511-.772-1.4.248-1.991l3.6-2.082a3.832,3.832,0,0,1,3.447-.142l11,6.352c.883.511.774,1.4-.246,1.991l-3.606,2.082A3.832,3.832,0,0,1,418.411,202.415Z" transform="translate(-247.224 -149.595)" fill="#173d7a"/>
          <path id="Trazado_22430" data-name="Trazado 22430" d="M473.422,234.176l-11.006-6.354c-.883-.511-.772-1.4.248-1.991l3.6-2.08a3.83,3.83,0,0,1,3.449-.144l11,6.354c.884.509.772,1.4-.248,1.989l-3.6,2.082A3.832,3.832,0,0,1,473.422,234.176Z" transform="translate(-208.221 -127.077)" fill="#173d7a"/>
          <path id="Trazado_22431" data-name="Trazado 22431" d="M483.275,239.864l-11-6.352c-.884-.511-.772-1.4.248-1.991l3.6-2.082a3.832,3.832,0,0,1,3.447-.142l11,6.352c.884.511.772,1.4-.248,1.991l-3.6,2.082A3.826,3.826,0,0,1,483.275,239.864Z" transform="translate(-201.235 -123.044)" fill="#173d7a"/>
          <path id="Trazado_22432" data-name="Trazado 22432" d="M493.129,245.553,482.123,239.2c-.884-.511-.772-1.4.248-1.991l3.6-2.082a3.832,3.832,0,0,1,3.447-.142l11.006,6.352c.884.511.772,1.4-.248,1.991l-3.6,2.082A3.832,3.832,0,0,1,493.129,245.553Z" transform="translate(-194.249 -119.01)" fill="#173d7a"/>
          <path id="Trazado_22433" data-name="Trazado 22433" d="M502.982,251.242l-11-6.352c-.884-.511-.772-1.4.248-1.991l3.6-2.082a3.832,3.832,0,0,1,3.447-.142l11,6.352c.884.511.772,1.4-.248,1.991l-3.6,2.082A3.832,3.832,0,0,1,502.982,251.242Z" transform="translate(-187.263 -114.977)" fill="#173d7a"/>
          <path id="Trazado_22434" data-name="Trazado 22434" d="M405.392,208.4l-11.006-6.352c-.883-.511-.772-1.4.248-1.991l10.905-6.3a3.832,3.832,0,0,1,3.447-.142l11,6.352c.884.511.772,1.4-.248,1.991l-10.9,6.3A3.832,3.832,0,0,1,405.392,208.4Z" transform="translate(-256.455 -148.343)" fill="#173d7a"/>
          <path id="Trazado_22435" data-name="Trazado 22435" d="M415.336,214.136l-11-6.352c-.884-.511-.773-1.4.248-1.991l10.9-6.294a3.832,3.832,0,0,1,3.447-.144l11,6.354c.884.509.772,1.4-.248,1.989l-10.9,6.3A3.826,3.826,0,0,1,415.336,214.136Z" transform="translate(-249.404 -144.272)" fill="#173d7a"/>
          <path id="Trazado_22436" data-name="Trazado 22436" d="M425.28,219.879l-11-6.354c-.884-.509-.773-1.4.248-1.991l10.9-6.294a3.832,3.832,0,0,1,3.447-.144l11,6.354c.884.509.772,1.4-.248,1.991l-10.9,6.294A3.832,3.832,0,0,1,425.28,219.879Z" transform="translate(-242.353 -140.202)" fill="#173d7a"/>
          <path id="Trazado_22437" data-name="Trazado 22437" d="M435.224,225.62l-11-6.354c-.884-.509-.772-1.4.248-1.989l10.9-6.3a3.832,3.832,0,0,1,3.447-.144l11,6.354c.885.511.774,1.4-.246,1.991l-10.905,6.3A3.832,3.832,0,0,1,435.224,225.62Z" transform="translate(-235.303 -136.132)" fill="#173d7a"/>
          <path id="Trazado_22438" data-name="Trazado 22438" d="M445.168,231.36l-11-6.352c-.884-.511-.772-1.4.248-1.991l10.9-6.3a3.832,3.832,0,0,1,3.447-.142l11.006,6.354c.884.509.772,1.4-.248,1.989l-10.9,6.3A3.835,3.835,0,0,1,445.168,231.36Z" transform="translate(-228.253 -132.061)" fill="#173d7a"/>
          <path id="Trazado_22439" data-name="Trazado 22439" d="M455.113,237.1l-11.006-6.354c-.884-.511-.772-1.4.248-1.991l10.9-6.294a3.836,3.836,0,0,1,3.449-.144l11,6.354c.883.509.772,1.4-.248,1.989l-10.9,6.3A3.832,3.832,0,0,1,455.113,237.1Z" transform="translate(-221.202 -127.99)" fill="#173d7a"/>
          <path id="Trazado_22440" data-name="Trazado 22440" d="M465.057,242.844l-11-6.354c-.884-.509-.774-1.4.246-1.989l10.905-6.3a3.832,3.832,0,0,1,3.447-.144l11,6.354c.884.511.772,1.4-.248,1.991L468.5,242.7A3.832,3.832,0,0,1,465.057,242.844Z" transform="translate(-214.152 -123.92)" fill="#173d7a"/>
          <path id="Trazado_22441" data-name="Trazado 22441" d="M475,248.584l-11-6.352c-.884-.511-.772-1.4.248-1.991l10.9-6.3a3.832,3.832,0,0,1,3.447-.142l11,6.352c.884.511.772,1.4-.248,1.991l-10.9,6.3A3.832,3.832,0,0,1,475,248.584Z" transform="translate(-207.101 -119.849)" fill="#173d7a"/>
          <path id="Trazado_22442" data-name="Trazado 22442" d="M484.945,254.325l-11-6.352c-.883-.511-.772-1.4.248-1.991l10.9-6.294a3.827,3.827,0,0,1,3.447-.144l11,6.354c.884.509.774,1.4-.246,1.989l-10.905,6.3A3.832,3.832,0,0,1,484.945,254.325Z" transform="translate(-200.051 -115.779)" fill="#173d7a"/>
          <path id="Trazado_22443" data-name="Trazado 22443" d="M357.419,214.231l-32.41-18.712c-.884-.509-.772-1.4.248-1.989l10.9-6.3a3.832,3.832,0,0,1,3.447-.144l32.41,18.712c.884.511.774,1.4-.246,1.991l-10.905,6.3A3.832,3.832,0,0,1,357.419,214.231Z" transform="translate(-305.643 -152.967)" fill="#173d7a"/>
          <path id="Trazado_22444" data-name="Trazado 22444" d="M479.586,284.764l-32.409-18.712c-.884-.511-.774-1.4.246-1.991l10.905-6.294a3.832,3.832,0,0,1,3.447-.144l32.41,18.712c.883.511.772,1.4-.248,1.991l-10.9,6.294A3.832,3.832,0,0,1,479.586,284.764Z" transform="translate(-219.027 -102.959)" fill="#173d7a"/>
          <path id="Trazado_22445" data-name="Trazado 22445" d="M430.938,269.859l-11-6.354c-.885-.509-.774-1.4.246-1.991l12.99-7.5a3.832,3.832,0,0,1,3.447-.142l11,6.352c.884.511.772,1.4-.248,1.991l-12.988,7.5A3.832,3.832,0,0,1,430.938,269.859Z" transform="translate(-238.342 -105.619)" fill="#173d7a"/>
          <path id="Trazado_22446" data-name="Trazado 22446" d="M361.459,229.744l-17.6-10.16c-.884-.511-.772-1.4.248-1.991l12.988-7.5a3.832,3.832,0,0,1,3.447-.144l17.6,10.162c.883.511.774,1.4-.246,1.991l-12.99,7.5A3.832,3.832,0,0,1,361.459,229.744Z" transform="translate(-292.278 -136.76)" fill="#173d7a"/>
          <path id="Trazado_22447" data-name="Trazado 22447" d="M424.092,265.907l-17.6-10.162c-.884-.509-.772-1.4.248-1.989l12.99-7.5a3.827,3.827,0,0,1,3.447-.144l17.6,10.16c.884.511.772,1.4-.248,1.991l-12.988,7.5A3.836,3.836,0,0,1,424.092,265.907Z" transform="translate(-247.871 -111.121)" fill="#173d7a"/>
          <path id="Trazado_22448" data-name="Trazado 22448" d="M375.806,238.029l-17.6-10.162c-.884-.509-.773-1.4.248-1.989l12.988-7.5a3.835,3.835,0,0,1,3.449-.142l17.6,10.162c.884.509.772,1.4-.248,1.989l-12.99,7.5A3.832,3.832,0,0,1,375.806,238.029Z" transform="translate(-282.106 -130.887)" fill="#173d7a"/>
          <path id="Trazado_22449" data-name="Trazado 22449" d="M374.712,218.132l76.519,44.178a1.049,1.049,0,0,1,0,1.986l-13.247,7.648a3.809,3.809,0,0,1-3.439,0l-76.517-44.178Z" transform="translate(-281.809 -130.715)" fill="#173d7a"/>
          <path id="Trazado_22450" data-name="Trazado 22450" d="M457.581,273.61l12.259,7.077c.725.419.632,1.15-.2,1.632l-5.313,3.068a3.14,3.14,0,0,1-2.825.118l-12.259-7.079c-.725-.417-.634-1.148.2-1.63l5.313-3.068A3.14,3.14,0,0,1,457.581,273.61Z" transform="translate(-217.488 -91.581)" fill="#173d7a"/>
          <path id="Trazado_22451" data-name="Trazado 22451" d="M447.555,267.821l12.257,7.079c.725.417.634,1.148-.2,1.63L454.3,279.6a3.141,3.141,0,0,1-2.825.118l-12.259-7.077c-.725-.419-.632-1.148.2-1.632l5.313-3.068A3.144,3.144,0,0,1,447.555,267.821Z" transform="translate(-224.597 -95.686)" fill="#173d7a"/>
          <path id="Trazado_22452" data-name="Trazado 22452" d="M437.61,262.08l12.259,7.077c.725.419.634,1.148-.2,1.632l-5.313,3.068a3.141,3.141,0,0,1-2.825.118L429.268,266.9c-.725-.417-.634-1.148.2-1.63l5.313-3.068A3.135,3.135,0,0,1,437.61,262.08Z" transform="translate(-231.648 -99.756)" fill="#173d7a"/>
          <path id="Trazado_22453" data-name="Trazado 22453" d="M453.046,264.651l12.259,7.077c.723.419.632,1.148-.2,1.632l-5.313,3.068a3.143,3.143,0,0,1-2.827.116L444.7,269.467c-.725-.417-.634-1.148.2-1.63l5.315-3.068A3.135,3.135,0,0,1,453.046,264.651Z" transform="translate(-220.704 -97.933)" fill="#173d7a"/>
        </g>
      </g>
      <path id="Trazado_22454" data-name="Trazado 22454" d="M599.663,145.563l-78.809-45.5-71.117-31-13.585,56.848s-19.337,69.939,47.763,152.06c85.32,5.879,100.048-66.721,100.048-66.721Z" transform="translate(-131.764 -1.235)" fill="#d4ecff"/>
      <g id="Grupo_17251" data-name="Grupo 17251" transform="translate(315.589 67.831)">
        <path id="Trazado_22455" data-name="Trazado 22455" d="M573.686,133.872l20.254,11.693,9.23-3.207-27.691-15.987L444.014,69.066l-2.381,9.962Z" transform="translate(-441.634 -69.066)" fill="#173d7a"/>
        <path id="Trazado_22456" data-name="Trazado 22456" d="M540.029,118.68l-20.253-11.693-2.105,8.808,20.255,11.688Z" transform="translate(-387.724 -42.18)" fill="#396caa"/>
      </g>
      <g id="Grupo_17253" data-name="Grupo 17253" transform="translate(219.156 66.26)">
        <g id="Grupo_17252" data-name="Grupo 17252" transform="translate(15.166 12.328)" opacity="0.5">
          <path id="Trazado_22457" data-name="Trazado 22457" d="M439.119,94.78l-14.774-8.53a4.223,4.223,0,0,1-1.8-4.375h0a2.055,2.055,0,0,1,3.16-1.509l14.774,8.53a4.226,4.226,0,0,1,1.8,4.375h0A2.056,2.056,0,0,1,439.119,94.78Z" transform="translate(-373.967 -72.046)" fill="#d4ecff"/>
          <path id="Trazado_22458" data-name="Trazado 22458" d="M462.62,108.348,440.835,95.772a4.229,4.229,0,0,1-1.8-4.375h0a2.058,2.058,0,0,1,3.162-1.511l21.783,12.578a4.224,4.224,0,0,1,1.8,4.375h0A2.055,2.055,0,0,1,462.62,108.348Z" transform="translate(-362.276 -65.295)" fill="#d4ecff"/>
          <path id="Trazado_22459" data-name="Trazado 22459" d="M424.05,135.132,409.277,126.6a4.222,4.222,0,0,1-1.8-4.373h0a2.055,2.055,0,0,1,3.16-1.509l14.774,8.53a4.226,4.226,0,0,1,1.8,4.375h0A2.057,2.057,0,0,1,424.05,135.132Z" transform="translate(-384.651 -43.436)" fill="#d4ecff"/>
          <path id="Trazado_22460" data-name="Trazado 22460" d="M445.315,147.408,423.53,134.832a4.227,4.227,0,0,1-1.8-4.375h0a2.056,2.056,0,0,1,3.162-1.509l21.785,12.577a4.229,4.229,0,0,1,1.8,4.375h0A2.056,2.056,0,0,1,445.315,147.408Z" transform="translate(-374.546 -37.602)" fill="#d4ecff"/>
          <path id="Trazado_22461" data-name="Trazado 22461" d="M411.318,86.9l-9.229-5.329a4.224,4.224,0,0,1-1.8-4.375h0a2.055,2.055,0,0,1,3.16-1.509l9.23,5.329a4.223,4.223,0,0,1,1.8,4.375h0A2.055,2.055,0,0,1,411.318,86.9Z" transform="translate(-389.748 -75.36)" fill="#d4ecff"/>
          <path id="Trazado_22462" data-name="Trazado 22462" d="M435.83,109.233l-28.2-16.282a4.224,4.224,0,0,1-1.8-4.375h0a2.055,2.055,0,0,1,3.16-1.509l28.2,16.282a4.226,4.226,0,0,1,1.8,4.375h0A2.057,2.057,0,0,1,435.83,109.233Z" transform="translate(-385.817 -67.294)" fill="#d4ecff"/>
          <path id="Trazado_22463" data-name="Trazado 22463" d="M413.531,112.708l-9.229-5.329A4.226,4.226,0,0,1,402.5,103h0a2.056,2.056,0,0,1,3.162-1.509l9.229,5.329a4.223,4.223,0,0,1,1.8,4.375h0A2.056,2.056,0,0,1,413.531,112.708Z" transform="translate(-388.178 -57.065)" fill="#d4ecff"/>
          <path id="Trazado_22464" data-name="Trazado 22464" d="M449.281,166.05l-24.649-14.233a4.222,4.222,0,0,1-1.8-4.373h0a2.054,2.054,0,0,1,3.16-1.509l24.651,14.231a4.226,4.226,0,0,1,1.8,4.375h0A2.056,2.056,0,0,1,449.281,166.05Z" transform="translate(-373.765 -25.558)" fill="#d4ecff"/>
          <path id="Trazado_22465" data-name="Trazado 22465" d="M406.9,125.227l-5.923-3.42a4.226,4.226,0,0,1-1.8-4.375h0a2.056,2.056,0,0,1,3.162-1.509l5.923,3.42a4.226,4.226,0,0,1,1.8,4.375h0A2.056,2.056,0,0,1,406.9,125.227Z" transform="translate(-390.539 -46.836)" fill="#d4ecff"/>
          <path id="Trazado_22466" data-name="Trazado 22466" d="M405,140.483l-7.357-4.247a4.226,4.226,0,0,1-1.8-4.377h0A2.055,2.055,0,0,1,399,130.35l7.357,4.249a4.226,4.226,0,0,1,1.8,4.375h0A2.056,2.056,0,0,1,405,140.483Z" transform="translate(-392.9 -36.607)" fill="#d4ecff"/>
          <path id="Trazado_22467" data-name="Trazado 22467" d="M426.74,153.036l-19.4-11.2a4.224,4.224,0,0,1-1.8-4.375h0a2.055,2.055,0,0,1,3.16-1.509l19.4,11.2a4.223,4.223,0,0,1,1.8,4.375h0A2.055,2.055,0,0,1,426.74,153.036Z" transform="translate(-386.022 -32.635)" fill="#d4ecff"/>
          <path id="Trazado_22468" data-name="Trazado 22468" d="M409.921,151.5l-13.945-8.053a4.226,4.226,0,0,1-1.8-4.375h0a2.057,2.057,0,0,1,3.162-1.509l13.945,8.053a4.227,4.227,0,0,1,1.8,4.375h0A2.057,2.057,0,0,1,409.921,151.5Z" transform="translate(-394.081 -31.492)" fill="#d4ecff"/>
          <path id="Trazado_22469" data-name="Trazado 22469" d="M455.146,169.472l-8.955-5.171a4.226,4.226,0,0,1-1.8-4.375h0a2.056,2.056,0,0,1,3.162-1.509l8.955,5.171a4.226,4.226,0,0,1,1.8,4.375h0A2.056,2.056,0,0,1,455.146,169.472Z" transform="translate(-358.479 -16.708)" fill="#d4ecff"/>
          <path id="Trazado_22470" data-name="Trazado 22470" d="M440.016,128l-24.649-14.233a4.223,4.223,0,0,1-1.8-4.375h0a2.056,2.056,0,0,1,3.162-1.509l24.649,14.233a4.226,4.226,0,0,1,1.8,4.375h0A2.056,2.056,0,0,1,440.016,128Z" transform="translate(-380.333 -52.536)" fill="#d4ecff"/>
        </g>
        <path id="Trazado_22471" data-name="Trazado 22471" d="M448.929,124.97l-42.963-24.8a4.223,4.223,0,0,1-1.8-4.375h0a2.055,2.055,0,0,1,3.16-1.509l42.963,24.8a4.226,4.226,0,0,1,1.8,4.375h0A2.056,2.056,0,0,1,448.929,124.97Z" transform="translate(-371.832 -49.851)" fill="#d4ecff"/>
        <path id="Trazado_22472" data-name="Trazado 22472" d="M427.288,128.824l-24.651-14.231a4.226,4.226,0,0,1-1.8-4.375h0A2.056,2.056,0,0,1,404,108.709l24.649,14.231a4.226,4.226,0,0,1,1.8,4.375h0A2.054,2.054,0,0,1,427.288,128.824Z" transform="translate(-374.193 -39.622)" fill="#d4ecff"/>
        <path id="Trazado_22473" data-name="Trazado 22473" d="M444.445,130.557l-8.955-5.171a4.224,4.224,0,0,1-1.8-4.375h0a2.055,2.055,0,0,1,3.16-1.509l8.957,5.171a4.226,4.226,0,0,1,1.8,4.375h0A2.056,2.056,0,0,1,444.445,130.557Z" transform="translate(-350.9 -31.97)" fill="#d4ecff"/>
        <path id="Trazado_22474" data-name="Trazado 22474" d="M514.463,138.281l-53.035-30.622a4.224,4.224,0,0,1-1.8-4.375h0a2.055,2.055,0,0,1,3.16-1.509L515.821,132.4a4.226,4.226,0,0,1,1.8,4.375h0A2.056,2.056,0,0,1,514.463,138.281Z" transform="translate(-332.511 -44.538)" fill="#d4ecff"/>
        <path id="Trazado_22475" data-name="Trazado 22475" d="M428.938,146.129l-29.631-17.107a4.226,4.226,0,0,1-1.8-4.375h0a2.055,2.055,0,0,1,3.16-1.509L430.3,140.244a4.223,4.223,0,0,1,1.8,4.375h0A2.055,2.055,0,0,1,428.938,146.129Z" transform="translate(-376.554 -29.393)" fill="#d4ecff"/>
        <path id="Trazado_22476" data-name="Trazado 22476" d="M425.537,86.94,403.754,74.361a4.224,4.224,0,0,1-1.8-4.375h0a2.056,2.056,0,0,1,3.162-1.509L426.9,81.056a4.224,4.224,0,0,1,1.8,4.375h0A2.056,2.056,0,0,1,425.537,86.94Z" transform="translate(-373.401 -68.146)" fill="#d4ecff"/>
        <path id="Trazado_22477" data-name="Trazado 22477" d="M412.332,161.066,387.1,146.5a4.226,4.226,0,0,1-1.8-4.375h0a2.056,2.056,0,0,1,3.162-1.509l25.23,14.568a4.225,4.225,0,0,1,1.8,4.373h0A2.056,2.056,0,0,1,412.332,161.066Z" transform="translate(-385.207 -17)" fill="#d4ecff"/>
      </g>
      <g id="Grupo_17256" data-name="Grupo 17256" transform="translate(414.652 293.909)">
        <path id="Trazado_22487" data-name="Trazado 22487" d="M512.138,210.8a4.993,4.993,0,0,0,2.039,5.665,3.016,3.016,0,0,0,4.5-1.888,4.992,4.992,0,0,0-2.039-5.665A3.016,3.016,0,0,0,512.138,210.8Z" transform="translate(-490.868 -196.311)" fill="#d4ecff"/>
        <path id="Trazado_22488" data-name="Trazado 22488" d="M505.981,207.242a4.991,4.991,0,0,0,2.039,5.665,3.016,3.016,0,0,0,4.5-1.888,4.993,4.993,0,0,0-2.04-5.665A3.015,3.015,0,0,0,505.981,207.242Z" transform="translate(-495.234 -198.832)" fill="#d4ecff"/>
        <path id="Trazado_22489" data-name="Trazado 22489" d="M499.824,203.686a4.991,4.991,0,0,0,2.039,5.665,3.013,3.013,0,0,0,4.5-1.888,4.989,4.989,0,0,0-2.039-5.664A3.013,3.013,0,0,0,499.824,203.686Z" transform="translate(-499.599 -201.352)" fill="#d4ecff"/>
      </g>
      <g id="Grupo_17254" data-name="Grupo 17254" transform="translate(271.474)">
        <path id="Unión_1" data-name="Unión 1" d="M-3589.873-6156.069c-67.1-82.121-47.766-152.061-47.766-152.061l20.517-85.852c-5.056-2.71-11.132-5.959-11.132-5.959l13.846-5.393,43.212,19.211a361.4,361.4,0,0,1,63.8,36.832l40.8,29.3-23.229,97.205s-8.549,42.087-50.292,59.575h.018l-.262.1q-1.668.694-3.4,1.333l-12.461,4.876s.136-.553.341-1.358a113.121,113.121,0,0,1-24.386,2.528Q-3584.915-6155.732-3589.873-6156.069Z" transform="translate(3654.069 6405.333)" fill="#173d7a" stroke="rgba(0,0,0,0)" stroke-width="1"/>
        <path id="Trazado_22482" data-name="Trazado 22482" d="M566.218,215.075l23.229-97.2-40.8-29.3a361.426,361.426,0,0,0-63.8-36.832L441.636,32.531l-23.23,97.2S399.07,199.675,466.17,281.8C551.49,287.675,566.218,215.075,566.218,215.075Z" transform="translate(-415.821 -27.137)" fill="#396caa"/>
        <path id="Trazado_22483" data-name="Trazado 22483" d="M467.082,264.926c-30.316-38.492-40.44-73.535-43.552-96.442-3.478-25.6.79-42.048.819-42.164l20.3-84.9,31.3,13.916a351.13,351.13,0,0,1,61.878,35.734l34.9,25.054-21.54,90.129-.08.364a80.86,80.86,0,0,1-15.772,30.829C519.47,256.7,496.514,265.934,467.082,264.926Z" transform="translate(-411.322 -20.834)" fill="#f9eecb"/>
      </g>
      <g id="Grupo_17268" data-name="Grupo 17268" transform="translate(35.662 -243.076)">
        <g id="Grupo_17265" data-name="Grupo 17265" transform="translate(276.458 359.282)">
          <path id="Trazado_22531" data-name="Trazado 22531" d="M335.759,357.864c-9.634-16.229-26.305-24.534-36.677-18.381L277.9,351.725l35.229,58.563,21.086-12.2C344.585,391.932,345.388,374.093,335.759,357.864Z" transform="translate(-270.061 -337.451)" fill="#fdd762"/>
          <path id="Trazado_22532" data-name="Trazado 22532" d="M281.593,384.868c9.631,16.229,25.846,24.4,36.217,18.244s10.97-24.3,1.339-40.532-25.848-24.4-36.217-18.244S271.962,368.636,281.593,384.868Z" transform="translate(-274.744 -330.275)" fill="#f1ba10"/>
        </g>
        <g id="Grupo_17266" data-name="Grupo 17266" transform="translate(273.589 379.226)">
          <path id="Trazado_22533" data-name="Trazado 22533" d="M313.2,361.867c-7.733-13.03-21.116-19.7-29.443-14.756l-7.634,4.382,28.28,47.014,7.557-4.347C320.285,389.218,320.931,374.9,313.2,361.867Z" transform="translate(-269.829 -345.479)" fill="#fdd762"/>
          <path id="Trazado_22534" data-name="Trazado 22534" d="M279.089,381.353c7.731,13.03,20.748,19.588,29.075,14.647s8.807-19.509,1.076-32.538-20.751-19.588-29.078-14.647S271.355,368.323,279.089,381.353Z" transform="translate(-273.589 -342.972)" fill="#f1ba10"/>
        </g>
        <path id="Trazado_22536" data-name="Trazado 22536" d="M291.269,364.413a15.982,15.982,0,0,0-1.645-2.28c1.086-1.515.929-4.248-.556-6.755-1.791-3.018-4.807-4.536-6.735-3.391-1.689,1-1.982,3.719-.825,6.4a4.466,4.466,0,0,0-1.22.489c-3.145,1.866-3.326,7.368-.4,12.289s7.835,7.4,10.98,5.532S294.19,369.334,291.269,364.413Z" transform="translate(6.258 42.839)" fill="#333"/>
        <path id="Trazado_22535" data-name="Trazado 22535" d="M317.942,386.281c-3.662-.514-6.35-2.3-6.35-5.845V358.11a25.71,25.71,0,0,0-12.819-22.2,2.323,2.323,0,0,0-3.485,2.012v25.55c0,3.542-2.944,5.418-6.367,5.758-3.525.35-6.464-.139-6.464-3.682V337.921A15.154,15.154,0,0,1,305.189,324.8a38.567,38.567,0,0,1,19.233,33.311v22.326C324.421,383.978,321.917,386.8,317.942,386.281Z" transform="translate(13.163)" fill="#173d7a"/>
      </g>
      <g id="Grupo_17263" data-name="Grupo 17263" transform="translate(193.245 329.455)">
        <path id="Trazado_22490" data-name="Trazado 22490" d="M521.688,355.292l-31.661-18.279c-1.943-1.123-1.7-3.081.545-4.377l30.571-17.651c2.244-1.3,5.638-1.436,7.581-.314l31.661,18.28c1.943,1.123,1.7,3.081-.545,4.377l-30.571,17.651C527.025,356.273,523.631,356.413,521.688,355.292Z" transform="translate(-457.979 -208.812)" fill="#c4d9e8" opacity="0.5"/>
        <ellipse id="Elipse_2542" data-name="Elipse 2542" cx="30.681" cy="17.713" rx="30.681" ry="17.713" transform="translate(-2 191.217)" fill="#e2e2e2"/>
        <g id="Grupo_17260" data-name="Grupo 17260" transform="translate(12.087)">
          <path id="Trazado_22502" data-name="Trazado 22502" d="M500.505,337.4s-4.792-2.417-7.735,1.183-7.15,12.093-7.28,17.833,4.542,5.353,7.32,4,10.893-13.13,11.384-15.437-.579-5.424-1.359-6.034S500.505,337.4,500.505,337.4Z" transform="translate(-467.381 -138.017)" fill="#173d7a"/>
          <path id="Trazado_22503" data-name="Trazado 22503" d="M498.651,336.875l.222,4.965a2.812,2.812,0,0,1-1.4,2.582,5.52,5.52,0,0,1-3.7.574c-3.609-.579-3.932-1.612-4.19-6.575S498.651,336.875,498.651,336.875Z" transform="translate(-464.481 -138.642)" fill="#ffaf84"/>
          <g id="Grupo_17259" data-name="Grupo 17259" transform="translate(0 88.087)">
            <path id="Trazado_22504" data-name="Trazado 22504" d="M490.242,331.817s-4.794-2.417-7.737,1.183-7.15,12.093-7.28,17.833,4.542,5.353,7.321,3.994,10.891-13.129,11.384-15.436-.579-5.424-1.36-6.035S490.242,331.817,490.242,331.817Z" transform="translate(-474.659 -230.064)" fill="#173d7a"/>
            <path id="Trazado_22505" data-name="Trazado 22505" d="M488.386,331.289l.222,4.965a2.814,2.814,0,0,1-1.4,2.582,5.518,5.518,0,0,1-3.7.574c-3.609-.579-3.932-1.612-4.19-6.575S488.386,331.289,488.386,331.289Z" transform="translate(-471.759 -230.689)" fill="#ffaf84"/>
            <path id="Trazado_22506" data-name="Trazado 22506" d="M534.283,281.394c-1.418-23.078-24.992,3.394-24.992,3.394L493.154,300.6l-14.53,15.96a14.327,14.327,0,0,0-3.609,11.507l5.879,44.755a4.4,4.4,0,0,0,4.411,3.821,14.818,14.818,0,0,0,2.177-.19,5.467,5.467,0,0,0,4.855-5.8l-1.073-41.86L521.776,310.4S535.7,304.472,534.283,281.394Z" transform="translate(-474.893 -271.948)" fill="#fdd762"/>
          </g>
          <path id="Trazado_22507" data-name="Trazado 22507" d="M544.548,286.538c-1.418-23.078-24.994,3.4-24.994,3.4l-16.135,15.815-14.53,15.96a14.326,14.326,0,0,0-3.609,11.507l5.877,44.755a4.4,4.4,0,0,0,4.411,3.823,15.048,15.048,0,0,0,2.177-.191,5.469,5.469,0,0,0,4.857-5.8l-1.075-41.859,30.514-18.4S545.966,309.617,544.548,286.538Z" transform="translate(-467.615 -180.214)" fill="#fdd762"/>
          <path id="Trazado_22508" data-name="Trazado 22508" d="M526.053,240.337c17.873,7.41,17.516,17.975,17.516,17.975s-3.5,38.734-2.307,64.6c.5,10.815-57.455,11.638-48.811-17.211,10.191-34.016,6.369-61.555,11.141-65.708S521.43,238.419,526.053,240.337Z" transform="translate(-463.067 -208.095)" fill="#eff4f4"/>
          <ellipse id="Elipse_2543" data-name="Elipse 2543" cx="13.758" cy="13.758" rx="13.758" ry="13.758" transform="translate(37.404 24.34) rotate(-59.496)" fill="#ffaf84"/>
          <path id="Trazado_22509" data-name="Trazado 22509" d="M522.587,248.6c-.935,3.628-5.689,5.541-10.62,4.271s-8.171-5.242-7.236-8.87,5.691-5.542,10.62-4.273S523.522,244.966,522.587,248.6Z" transform="translate(-453.851 -206.986)" fill="#ffaf84"/>
          <path id="Trazado_22510" data-name="Trazado 22510" d="M507.62,240.278a44.163,44.163,0,0,1-.155,6.38c-.1,1.781,6.137,3.444,7.749,1.832s.967-3.288,1.353-9.347S507.62,240.278,507.62,240.278Z" transform="translate(-451.8 -208.842)" fill="#ffaf84"/>
          <path id="Trazado_22511" data-name="Trazado 22511" d="M504.809,241.234s6.6-2.8,12.387-1.632a6.061,6.061,0,0,1,3.5,2.078,2.056,2.056,0,0,0,1.058.766c1.027.232,2.707-4.026,4.7-4.124s3.327,1.316,1.692,3.936-1.083,5.549-.332,5.97,8.738-5.694,1.7-19.645-24.933-6.436-27.715-3.609c0,0-2.931,2.553-5.315.282C496.479,225.255,493.808,245.269,504.809,241.234Z" transform="translate(-459.79 -220.405)" fill="#914d31"/>
          <path id="Trazado_22512" data-name="Trazado 22512" d="M525.627,268.82v10.466a4.268,4.268,0,0,1-1.391,3.151l-21.5,19.6,2.442,3.736,28.4-20.593a5.771,5.771,0,0,0,2.35-4.067l1.919-18.254Z" transform="translate(-455.152 -190.304)" fill="#ffaf84"/>
          <path id="Trazado_22513" data-name="Trazado 22513" d="M525.293,246.727s6.523,9.81,8.953,35.631c0,0-11.143,3.6-17.466,1.557S525.293,246.727,525.293,246.727Z" transform="translate(-446.306 -201.743)" fill="#eff4f4"/>
          <path id="Trazado_22514" data-name="Trazado 22514" d="M516.553,253.985s-2.553,13.665-2.7,20.089a4.1,4.1,0,0,0,2.7,3.96h0Z" transform="translate(-447.27 -196.597)" fill="#c8cdce"/>
        </g>
        <g id="Grupo_17261" data-name="Grupo 17261" transform="translate(11.916 103.92)">
          <path id="Trazado_22515" data-name="Trazado 22515" d="M538.669,301.516l-4.753-.627-30.675-17.71a4.258,4.258,0,0,0-3.837.159l-21.737,12.544-2.875-.379v2.861h0a1.121,1.121,0,0,0,.66,1.008l34.764,20.07a4.263,4.263,0,0,0,3.837-.159l23.673-13.662a1.551,1.551,0,0,0,.938-1.29h0Z" transform="translate(-474.793 -280.092)" fill="#173d7a"/>
          <path id="Trazado_22516" data-name="Trazado 22516" d="M515.619,287.723l-2.179-1.258H489.48l-11.813,6.814-2.875-.379v2.861h0a1.121,1.121,0,0,0,.66,1.008l34.764,20.071a3.583,3.583,0,0,0,1.981.371Z" transform="translate(-474.793 -277.489)" fill="#396caa"/>
          <path id="Trazado_22517" data-name="Trazado 22517" d="M476.07,290.4l-1.277-.169v2.861h0a1.121,1.121,0,0,0,.66,1.008l.613.354Z" transform="translate(-474.793 -274.82)" fill="#5793ce"/>
          <path id="Trazado_22518" data-name="Trazado 22518" d="M495.728,306.436a4.456,4.456,0,0,0,3.261-.2v-4.867h-3.261Z" transform="translate(-459.95 -266.924)" fill="#274f89"/>
          <path id="Trazado_22519" data-name="Trazado 22519" d="M510.221,317.705l-34.764-20.072c-.983-.567-.86-1.56.275-2.215L499.4,281.755a4.268,4.268,0,0,1,3.837-.159l34.765,20.072c.983.567.86,1.559-.275,2.215l-23.673,13.662A4.264,4.264,0,0,1,510.221,317.705Z" transform="translate(-474.793 -281.213)" fill="#fff"/>
          <path id="Trazado_22520" data-name="Trazado 22520" d="M507.4,311.619l-28.906-16.688c-.819-.472-.716-1.3.229-1.842l12.684-7.133a3.543,3.543,0,0,1,3.191-.132L523.5,302.512c.819.473.716,1.3-.229,1.842l-12.684,7.133A3.543,3.543,0,0,1,507.4,311.619Z" transform="translate(-472.56 -278.171)" fill="#d4ecff"/>
        </g>
        <path id="Trazado_22521" data-name="Trazado 22521" d="M490.211,281.646l-.359,2.4a17.7,17.7,0,0,0,.155,6.149l.429,2.114a2.974,2.974,0,0,0,2.381,2.336h0a1.642,1.642,0,0,0,1.924-1.432l.574-5.127s1.311,1.719,1.945,1.719-.709-5.136-2.141-8.043S490.211,281.646,490.211,281.646Z" transform="translate(-452.34 -177.842)" fill="#ffc2b0"/>
        <path id="Trazado_22522" data-name="Trazado 22522" d="M502.7,261.84l-3.731,7.383a14.483,14.483,0,0,0-1.526,5.6l-1.62,25.254-4.908-.116L488.69,271.6a10.444,10.444,0,0,1,.126-2.622l2.545-14.381Z" transform="translate(-453.046 -196.16)" fill="#ffaf84"/>
        <g id="Grupo_17262" data-name="Grupo 17262" transform="translate(8.76 88.743)">
          <path id="Trazado_22523" data-name="Trazado 22523" d="M510.381,325.788l-2.914-3.8-30.654-17.748a4.264,4.264,0,0,1-1.776-3.4l.026-25.1-1.762-2.3,1.656-.959,0,0a1.121,1.121,0,0,1,1.2.07L510.9,292.659a4.264,4.264,0,0,1,1.776,3.4l-.029,27.332a1.547,1.547,0,0,1-.649,1.458h0Z" transform="translate(-472.694 -272.332)" fill="#173d7a"/>
          <path id="Trazado_22524" data-name="Trazado 22524" d="M489.183,311.4l-2.177-1.261L475.051,289.37l.012-13.638-1.762-2.3,1.656-.959,0,0a1.121,1.121,0,0,1,1.2.07L510.9,292.659a3.6,3.6,0,0,1,1.309,1.531Z" transform="translate(-472.694 -272.332)" fill="#396caa"/>
          <path id="Trazado_22525" data-name="Trazado 22525" d="M474.084,274.454l-.783-1.022,1.656-.959,0,0a1.121,1.121,0,0,1,1.2.07l.612.354Z" transform="translate(-472.694 -272.332)" fill="#5793ce"/>
          <path id="Trazado_22526" data-name="Trazado 22526" d="M496.968,284.356a4.461,4.461,0,0,1,1.451,2.926l-3.4,1.96-1.625-2.825Z" transform="translate(-458.446 -263.808)" fill="#274f89"/>
          <path id="Trazado_22527" data-name="Trazado 22527" d="M509.5,293.221l-34.741-20.115c-.983-.569-1.781.034-1.782,1.345l-.029,27.332a4.266,4.266,0,0,0,1.777,3.4L509.462,325.3c.983.569,1.781-.033,1.783-1.343l.029-27.332A4.262,4.262,0,0,0,509.5,293.221Z" transform="translate(-472.946 -271.936)" fill="#fff"/>
        </g>
        <path id="Trazado_22528" data-name="Trazado 22528" d="M508.916,289.522l-.555,1.152a7.72,7.72,0,0,1-2.905,3.22L502,296.021a3.437,3.437,0,0,1-3.522.08c-.039-.022-.078-.046-.118-.07a2.078,2.078,0,0,1-.292-3.191l3.606-3.707s-2.027,1.553-2.594.928c-.415-.458,1.965-2.693,3.792-2.767a7.218,7.218,0,0,0,3.6-1.509Z" transform="translate(-446.804 -174.051)" fill="#ffaf84"/>
        <path id="Trazado_22529" data-name="Trazado 22529" d="M506.51,239.039s-13.219,14.383-18.551,27.58a26.987,26.987,0,0,0,15.584,11.339C514.609,281.154,506.51,239.039,506.51,239.039Z" transform="translate(-453.542 -207.194)" fill="#eff4f4"/>
        <path id="Trazado_22530" data-name="Trazado 22530" d="M496.828,269.9l2.143-20.7-5.05,19.394A29.521,29.521,0,0,0,496.828,269.9Z" transform="translate(-449.315 -199.989)" fill="#c8cdce"/>
      </g>
    </g>
    <circle id="Elipse_2538" data-name="Elipse 2538" cx="18.587" cy="18.587" r="18.587" transform="translate(858.25 445.908)" fill="#c4cbd6"/>
    <path id="Trazado_22055" data-name="Trazado 22055" d="M51.112,63.621a10.226,10.226,0,1,1,10.2-10.252,10.226,10.226,0,0,1-10.2,10.252Zm0-15.1a4.9,4.9,0,1,0,4.873,4.847A4.9,4.9,0,0,0,51.112,48.522Z" transform="translate(486.794 76.381)" fill="#c4cbd6"/>
    <path id="Trazado_22060" data-name="Trazado 22060" d="M73.6,68.312H70.166v3.409a2.823,2.823,0,1,1-5.619,0V68.312H61.112a2.823,2.823,0,0,1,0-5.619h3.435V59.152a2.823,2.823,0,0,1,5.619,0v3.435H73.6a2.823,2.823,0,0,1,0,5.619Z" transform="translate(344.232 217.718)" fill="#b5b5b5"/>
  </g>
</svg>
